{
  "accessors": [
    {
      "bufferView": 2,
      "componentType": 5126,
      "count": 252,
      "max": [
        70.012496948242188,
        18.317899703979492,
        27.3572998046875
      ],
      "min": [
        -61.845401763916016,
        -113.4447021484375,
        11.097000122070312
      ],
      "type": "VEC3"
    },
    {
      "bufferView": 2,
      "byteOffset": 3024,
      "componentType": 5126,
      "count": 252,
      "max": [
        0.99978572130203247,
        1,
        0.99978572130203247
      ],
      "min": [
        -0.99978572130203247,
        -1,
        -0.99978572130203247
      ],
      "type": "VEC3"
    },
    {
      "bufferView": 3,
      "componentType": 5126,
      "count": 252,
      "max": [
        0.99978578090667725,
        1,
        0.02071085199713707,
        1
      ],
      "min": [
        -0.99978560209274292,
        -1,
        -0.020710842683911324,
        1
      ],
      "type": "VEC4"
    },
    {
      "bufferView": 0,
      "componentType": 5125,
      "count": 720,
      "max": [
        251
      ],
      "min": [
        0
      ],
      "type": "SCALAR"
    },
    {
      "bufferView": 2,
      "byteOffset": 6048,
      "componentType": 5126,
      "count": 244,
      "max": [
        4.5366001129150391,
        -14.913299560546875,
        142.58810424804688
      ],
      "min": [
        -1.2098000049591064,
        -20.589300155639648,
        137.2926025390625
      ],
      "type": "VEC3"
    },
    {
      "bufferView": 2,
      "byteOffset": 8976,
      "componentType": 5126,
      "count": 244,
      "max": [
        0.99990200996398926,
        0.98160117864608765,
        0.96303224563598633
      ],
      "min": [
        -0.93710935115814209,
        -0.99494022130966187,
        -0.93186891078948975
      ],
      "type": "VEC3"
    },
    {
      "bufferView": 3,
      "byteOffset": 4032,
      "componentType": 5126,
      "count": 244,
      "max": [
        0.98025983572006226,
        0.98133194446563721,
        0.99973076581954956,
        1
      ],
      "min": [
        -0.99688363075256348,
        -0.91467088460922241,
        -0.9569583535194397,
        -1
      ],
      "type": "VEC4"
    },
    {
      "bufferView": 1,
      "componentType": 5126,
      "count": 244,
      "max": [
        0.99559998512268066,
        -0.13740000128746033
      ],
      "min": [
        0.33079999685287476,
        -0.90140002965927124
      ],
      "type": "VEC2"
    },
    {
      "bufferView": 0,
      "byteOffset": 2880,
      "componentType": 5125,
      "count": 1050,
      "max": [
        243
      ],
      "min": [
        0
      ],
      "type": "SCALAR"
    },
    {
      "bufferView": 2,
      "byteOffset": 11904,
      "componentType": 5126,
      "count": 4177,
      "max": [
        11.261099815368652,
        7.1542000770568848,
        157.58839416503906
      ],
      "min": [
        -9.6323995590209961,
        -21.64539909362793,
        123.50550079345703
      ],
      "type": "VEC3"
    },
    {
      "bufferView": 2,
      "byteOffset": 62028,
      "componentType": 5126,
      "count": 4177,
      "max": [
        0.99981576204299927,
        0.99857157468795776,
        0.99972671270370483
      ],
      "min": [
        -0.99988198280334473,
        -0.99985027313232422,
        -0.99914753437042236
      ],
      "type": "VEC3"
    },
    {
      "bufferView": 3,
      "byteOffset": 7936,
      "componentType": 5126,
      "count": 4177,
      "max": [
        0.99945664405822754,
        0.99996888637542725,
        0.99232453107833862,
        1
      ],
      "min": [
        -0.99976044893264771,
        -0.99942606687545776,
        -0.99961745738983154,
        -1
      ],
      "type": "VEC4"
    },
    {
      "bufferView": 1,
      "byteOffset": 1952,
      "componentType": 5126,
      "count": 4177,
      "max": [
        0.9976000189781189,
        -0.0065999999642372131
      ],
      "min": [
        0.002899999963119626,
        -0.99409997463226318
      ],
      "type": "VEC2"
    },
    {
      "bufferView": 0,
      "byteOffset": 7080,
      "componentType": 5125,
      "count": 19818,
      "max": [
        4176
      ],
      "min": [
        0
      ],
      "type": "SCALAR"
    },
    {
      "bufferView": 2,
      "byteOffset": 112152,
      "componentType": 5126,
      "count": 6290,
      "max": [
        62.603900909423828,
        -3.8422999382019043,
        136.62019348144531
      ],
      "min": [
        -59.907501220703125,
        -93.296302795410156,
        24.807300567626953
      ],
      "type": "VEC3"
    },
    {
      "bufferView": 2,
      "byteOffset": 187632,
      "componentType": 5126,
      "count": 6290,
      "max": [
        0.99979454278945923,
        0.99998235702514648,
        0.99999940395355225
      ],
      "min": [
        -0.99969965219497681,
        -0.99977105855941772,
        -0.99951130151748657
      ],
      "type": "VEC3"
    },
    {
      "bufferView": 3,
      "byteOffset": 74768,
      "componentType": 5126,
      "count": 6290,
      "max": [
        1,
        0.99762016534805298,
        0.99950140714645386,
        1
      ],
      "min": [
        -0.99998652935028076,
        -0.99975121021270752,
        -0.99980324506759644,
        -1
      ],
      "type": "VEC4"
    },
    {
      "bufferView": 1,
      "byteOffset": 35368,
      "componentType": 5126,
      "count": 6290,
      "max": [
        0.99510002136230469,
        -0.0087000001221895218
      ],
      "min": [
        0.004999999888241291,
        -0.98189997673034668
      ],
      "type": "VEC2"
    },
    {
      "bufferView": 0,
      "byteOffset": 86352,
      "componentType": 5125,
      "count": 29022,
      "max": [
        6289
      ],
      "min": [
        0
      ],
      "type": "SCALAR"
    },
    {
      "bufferView": 2,
      "byteOffset": 263112,
      "componentType": 5126,
      "count": 230,
      "max": [
        7.2560000419616699,
        -13.400400161743164,
        148.03700256347656
      ],
      "min": [
        -2.0350000858306885,
        -17.593099594116211,
        143.34590148925781
      ],
      "type": "VEC3"
    },
    {
      "bufferView": 2,
      "byteOffset": 265872,
      "componentType": 5126,
      "count": 230,
      "max": [
        0.98154062032699585,
        0.62388986349105835,
        0.98730647563934326
      ],
      "min": [
        -0.99733519554138184,
        -0.99807751178741455,
        -0.96124345064163208
      ],
      "type": "VEC3"
    },
    {
      "bufferView": 3,
      "byteOffset": 175408,
      "componentType": 5126,
      "count": 230,
      "max": [
        0.99721074104309082,
        0.98392438888549805,
        0.64231997728347778,
        1
      ],
      "min": [
        -0.99764382839202881,
        -0.97495192289352417,
        -0.97607624530792236,
        -1
      ],
      "type": "VEC4"
    },
    {
      "bufferView": 1,
      "byteOffset": 85688,
      "componentType": 5126,
      "count": 230,
      "max": [
        0.79519999027252197,
        0.94059997797012329
      ],
      "min": [
        0.10779999941587448,
        0.23710000514984131
      ],
      "type": "VEC2"
    },
    {
      "bufferView": 0,
      "byteOffset": 202440,
      "componentType": 5125,
      "count": 1140,
      "max": [
        229
      ],
      "min": [
        0
      ],
      "type": "SCALAR"
    }
  ],
  "asset": {
    "extras": {
      "author": "38badwolf (https://sketchfab.com/38badwolf)",
      "license": "CC-BY-NC-4.0 (http://creativecommons.org/licenses/by-nc/4.0/)",
      "source": "https://sketchfab.com/models/5dab629697204550af955b9994507923",
      "title": "Dio Wry Pose"
    },
    "generator": "Sketchfab-3.19.1",
    "version": "2.0"
  },
  "bufferViews": [
    {
      "buffer": 0,
      "byteLength": 207000,
      "byteOffset": 0,
      "name": "floatBufferViews",
      "target": 34963
    },
    {
      "buffer": 0,
      "byteLength": 87528,
      "byteOffset": 207000,
      "byteStride": 8,
      "name": "floatBufferViews",
      "target": 34962
    },
    {
      "buffer": 0,
      "byteLength": 268632,
      "byteOffset": 294528,
      "byteStride": 12,
      "name": "floatBufferViews",
      "target": 34962
    },
    {
      "buffer": 0,
      "byteLength": 179088,
      "byteOffset": 563160,
      "byteStride": 16,
      "name": "floatBufferViews",
      "target": 34962
    }
  ],
  "buffers": [
    {
      "byteLength": 742248,
      "uri": "scene.bin"
    }
  ],
  "images": [
    {
      "uri": "textures/lambert1_baseColor.png"
    },
    {
      "uri": "textures/lambert1_emissive.png"
    },
    {
      "uri": "textures/lambert2_baseColor.png"
    },
    {
      "uri": "textures/lambert2_emissive.png"
    }
  ],
  "materials": [
    {
      "doubleSided": true,
      "emissiveFactor": [
        0,
        0,
        0
      ],
      "name": "blinn1",
      "pbrMetallicRoughness": {
        "baseColorFactor": [
          0,
          0,
          0,
          1
        ],
        "metallicFactor": 0,
        "roughnessFactor": 0.88709495679999995
      }
    },
    {
      "alphaMode": "BLEND",
      "doubleSided": true,
      "emissiveFactor": [
        0,
        0,
        0
      ],
      "emissiveTexture": {
        "index": 1,
        "texCoord": 0
      },
      "name": "lambert1",
      "pbrMetallicRoughness": {
        "baseColorFactor": [
          1,
          1,
          1,
          1
        ],
        "baseColorTexture": {
          "index": 0,
          "texCoord": 0
        },
        "metallicFactor": 0,
        "roughnessFactor": 0
      }
    },
    {
      "doubleSided": true,
      "emissiveFactor": [
        0,
        0,
        0
      ],
      "emissiveTexture": {
        "index": 3,
        "texCoord": 0
      },
      "name": "lambert2",
      "pbrMetallicRoughness": {
        "baseColorFactor": [
          1,
          1,
          1,
          1
        ],
        "baseColorTexture": {
          "index": 2,
          "texCoord": 0
        },
        "metallicFactor": 0,
        "roughnessFactor": 1
      }
    }
  ],
  "meshes": [
    {
      "primitives": [
        {
          "attributes": {
            "NORMAL": 1,
            "POSITION": 0,
            "TANGENT": 2
          },
          "indices": 3,
          "material": 0,
          "mode": 4
        }
      ]
    },
    {
      "primitives": [
        {
          "attributes": {
            "NORMAL": 5,
            "POSITION": 4,
            "TANGENT": 6,
            "TEXCOORD_0": 7
          },
          "indices": 8,
          "material": 1,
          "mode": 4
        }
      ]
    },
    {
      "primitives": [
        {
          "attributes": {
            "NORMAL": 10,
            "POSITION": 9,
            "TANGENT": 11,
            "TEXCOORD_0": 12
          },
          "indices": 13,
          "material": 1,
          "mode": 4
        }
      ]
    },
    {
      "primitives": [
        {
          "attributes": {
            "NORMAL": 15,
            "POSITION": 14,
            "TANGENT": 16,
            "TEXCOORD_0": 17
          },
          "indices": 18,
          "material": 1,
          "mode": 4
        }
      ]
    },
    {
      "primitives": [
        {
          "attributes": {
            "NORMAL": 20,
            "POSITION": 19,
            "TANGENT": 21,
            "TEXCOORD_0": 22
          },
          "indices": 23,
          "material": 2,
          "mode": 4
        }
      ]
    }
  ],
  "nodes": [
    {
      "children": [
        1
      ],
      "name": "RootNode (gltf orientation matrix)",
      "rotation": [
        -0.70710678118654746,
        -0,
        -0,
        0.70710678118654757
      ]
    },
    {
      "children": [
        2
      ],
      "name": "RootNode (model correction matrix)"
    },
    {
      "children": [
        3,
        4,
        5,
        6,
        7
      ],
      "name": "wry.obj.cleaner.materialmerger.gles"
    },
    {
      "mesh": 0,
      "name": ""
    },
    {
      "mesh": 1,
      "name": ""
    },
    {
      "mesh": 2,
      "name": ""
    },
    {
      "mesh": 3,
      "name": ""
    },
    {
      "mesh": 4,
      "name": ""
    }
  ],
  "samplers": [
    {
      "magFilter": 9729,
      "minFilter": 9987,
      "wrapS": 10497,
      "wrapT": 10497
    }
  ],
  "scene": 0,
  "scenes": [
    {
      "name": "OSG_Scene",
      "nodes": [
        0
      ]
    }
  ],
  "textures": [
    {
      "sampler": 0,
      "source": 0
    },
    {
      "sampler": 0,
      "source": 1
    },
    {
      "sampler": 0,
      "source": 2
    },
    {
      "sampler": 0,
      "source": 3
    }
  ]
}

